# Blender v2.80 (sub 51) OBJ File: 'cbox_caustic.blend'
# www.blender.org
o Cylinder
v 274.797607 299.014557 82.750641
v 274.797607 290.638092 382.633667
v 280.610413 298.080872 82.747269
v 280.610413 289.704407 382.630310
v 286.347809 297.025208 82.737183
v 286.347809 288.648743 382.620239
v 291.987457 295.851257 82.720398
v 291.987457 287.474792 382.603455
v 297.507751 294.562134 82.696976
v 297.507751 286.185669 382.580017
v 302.887970 293.160461 82.666962
v 302.887970 284.783997 382.549988
v 308.108521 291.648499 82.630402
v 308.108521 283.272034 382.513428
v 313.151276 290.027832 82.587402
v 313.151276 281.651367 382.470428
v 317.999359 288.260162 82.538101
v 317.999359 279.883698 382.421143
v 322.638428 286.271912 82.482559
v 322.638428 277.895447 382.365601
v 327.059662 284.065979 82.420944
v 327.059662 275.689514 382.303955
v 331.330261 281.647644 82.353394
v 331.330261 273.271179 382.236420
v 335.477020 279.022766 82.280075
v 335.477020 270.646301 382.163086
v 339.489929 276.197662 82.201157
v 339.489929 267.821198 382.084167
v 343.359314 273.179138 82.116852
v 343.359314 264.802673 381.999878
v 347.075867 269.974457 82.027328
v 347.075867 261.597992 381.910339
v 350.630676 266.591339 81.932831
v 350.742920 258.214874 381.815857
v 354.015106 263.037933 81.833572
v 354.481873 254.661469 381.716614
v 357.325623 259.322815 81.729797
v 358.297791 250.946350 381.612823
v 360.691498 255.454926 81.621765
v 362.194214 247.078461 381.504791
v 364.118866 251.443588 81.509720
v 366.173401 243.067123 381.392761
v 367.612366 247.298447 81.393936
v 370.236023 238.921982 381.276978
v 371.175171 243.029510 81.274689
v 374.381012 234.653046 381.157715
v 374.809021 238.647049 81.152283
v 378.605652 230.270584 381.035309
v 378.513977 234.161636 81.026993
v 382.905334 225.785172 380.910034
v 382.288391 229.584061 80.899124
v 387.273560 221.207596 380.782166
v 386.128876 224.925354 80.768997
v 391.701843 216.548889 380.652039
v 390.029968 220.196747 80.636917
v 396.179626 211.820282 380.519958
v 393.984467 215.409637 80.503204
v 400.694336 207.033173 380.386230
v 397.983032 210.575531 80.368179
v 405.231354 202.199066 380.251221
v 402.014221 205.706100 80.232162
v 409.773865 197.329636 380.115173
v 406.064697 200.813049 80.095490
v 414.303101 192.436584 379.978516
v 410.118958 195.908203 79.958481
v 418.798126 187.531738 379.841492
v 414.008484 191.169769 79.821472
v 423.081238 182.793320 379.704529
v 417.271332 187.181412 79.684784
v 426.666931 178.805756 379.567810
v 420.039185 183.915573 79.548782
v 429.672363 175.544312 379.431824
v 422.451965 181.255066 79.413742
v 432.226624 172.896606 379.296814
v 424.607513 179.061203 79.280029
v 434.420349 170.730118 379.163086
v 426.568420 177.184708 79.147949
v 436.314301 168.902283 379.031006
v 428.370544 175.475494 79.017822
v 437.948517 167.269592 378.900879
v 430.031494 173.791458 78.889938
v 439.351440 165.695618 378.773010
v 431.559082 172.005936 78.764664
v 440.547974 164.057816 378.647736
v 432.958618 170.013824 78.642242
v 441.565704 162.252914 378.525330
v 434.238220 167.735764 78.523010
v 442.438538 160.200729 378.406067
v 435.411743 165.120285 78.407227
v 443.207336 157.846039 378.290283
v 436.498474 162.143646 78.295166
v 443.917236 155.158295 378.178223
v 437.520081 158.807343 78.187134
v 444.612213 152.129486 378.070190
v 438.494049 155.133667 78.083359
v 445.326599 148.769882 377.966431
v 439.425873 151.159729 77.984116
v 446.075287 145.102722 377.867188
v 440.298767 146.930786 77.889633
v 446.843079 141.158203 377.772675
v 441.064423 142.493683 77.800095
v 447.573792 136.967545 377.683167
v 441.633850 137.891632 77.715790
v 448.161163 132.558563 377.598816
v 441.871521 133.161011 77.636887
v 448.441315 127.953117 377.519928
v 411.272095 60.276657 377.103027
v 403.729309 58.039368 377.133057
v 159.117798 258.425659 80.768997
v 159.117798 250.049194 380.652039
v 160.657440 263.084381 80.899139
v 160.657440 254.707916 380.782166
v 162.507935 267.544739 81.026978
v 162.507935 259.168274 380.910034
v 164.727753 271.689758 81.152267
v 164.727753 263.313293 381.035309
v 167.284805 275.526062 81.274689
v 167.284805 267.149597 381.157715
v 170.152069 279.060699 81.393921
v 170.152069 270.684235 381.276978
v 173.306808 282.301392 81.509720
v 173.306808 273.924927 381.392761
v 176.729736 285.256378 81.621750
v 176.729736 276.879913 381.504791
v 180.404343 287.934174 81.729797
v 180.404343 279.557709 381.612854
v 184.316315 290.343658 81.833572
v 184.316315 281.967194 381.716614
v 188.452896 292.493988 81.932831
v 188.452896 284.117523 381.815857
v 192.802368 294.394440 82.027328
v 192.802368 286.017975 381.910370
v 197.353577 296.054443 82.116837
v 197.353577 287.677979 381.999878
v 202.095535 297.483398 82.201157
v 202.095535 289.106934 382.084198
v 207.017029 298.690704 82.280075
v 207.017029 290.314240 382.163086
v 212.106415 299.685669 82.353378
v 212.106415 291.309204 382.236420
v 217.351151 300.477448 82.420929
v 217.351151 292.100983 382.303955
v 222.737778 301.074921 82.482559
v 222.737778 292.698456 382.365601
v 228.251709 301.486755 82.538086
v 228.251709 293.110291 382.421143
v 233.877090 301.721283 82.587418
v 233.877090 293.344818 382.470459
v 239.596863 301.786469 82.630402
v 239.596863 293.410004 382.513428
v 245.392731 301.689911 82.666946
v 245.392731 293.313446 382.549988
v 251.245148 301.438721 82.696976
v 251.245148 293.062256 382.580017
v 257.133636 301.039673 82.720413
v 257.133636 292.663208 382.603455
v 263.036743 300.498871 82.737183
v 263.036743 292.122406 382.620239
v 268.932373 299.822083 82.747284
v 268.932373 291.445618 382.630310
vn 0.1585 0.9870 0.0276
vn 0.1809 0.9831 0.0275
vn 0.2038 0.9786 0.0273
vn 0.2274 0.9734 0.0272
vn 0.2522 0.9673 0.0270
vn 0.2783 0.9601 0.0268
vn 0.3061 0.9516 0.0266
vn 0.3427 0.9391 0.0262
vn 0.3941 0.9187 0.0257
vn 0.4466 0.8944 0.0250
vn 0.4929 0.8697 0.0243
vn 0.5350 0.8445 0.0236
vn 0.5758 0.8173 0.0228
vn 0.6152 0.7880 0.0220
vn 0.6532 0.7569 0.0211
vn 0.6839 0.7293 0.0202
vn 0.7064 0.7075 0.0191
vn 0.7218 0.6918 0.0176
vn 0.7292 0.6841 0.0161
vn 0.7349 0.6780 0.0146
vn 0.7392 0.6734 0.0130
vn 0.7424 0.6699 0.0115
vn 0.7447 0.6674 0.0099
vn 0.7462 0.6656 0.0084
vn 0.7473 0.6645 0.0069
vn 0.7480 0.6637 0.0054
vn 0.7485 0.6631 0.0039
vn 0.7490 0.6625 0.0024
vn 0.7497 0.6618 0.0010
vn 0.7506 0.6608 -0.0003
vn 0.7519 0.6593 -0.0016
vn 0.7538 0.6571 -0.0029
vn 0.7572 0.6531 -0.0042
vn 0.7586 0.6515 -0.0052
vn 0.7489 0.6626 -0.0053
vn 0.7301 0.6834 -0.0046
vn 0.7079 0.7063 -0.0035
vn 0.6928 0.7211 -0.0026
vn 0.6971 0.7170 -0.0027
vn 0.7283 0.6852 -0.0043
vn 0.7822 0.6230 -0.0072
vn 0.8432 0.5375 -0.0107
vn 0.8951 0.4457 -0.0137
vn 0.9310 0.3646 -0.0158
vn 0.9529 0.3029 -0.0170
vn 0.9652 0.2609 -0.0174
vn 0.9721 0.2339 -0.0175
vn 0.9764 0.2152 -0.0175
vn 0.9802 0.1972 -0.0177
vn 0.9851 0.1712 -0.0182
vn 0.9916 0.1277 -0.0192
vn 0.9982 0.0557 -0.0208
vn -0.9495 0.3136 0.0088
vn -0.9237 0.3829 0.0107
vn -0.8816 0.4718 0.0132
vn -0.8322 0.5542 0.0155
vn -0.7768 0.6295 0.0176
vn -0.7168 0.6971 0.0195
vn -0.6537 0.7564 0.0211
vn -0.5892 0.8077 0.0226
vn -0.5247 0.8509 0.0238
vn -0.4616 0.8868 0.0248
vn -0.4007 0.9158 0.0256
vn -0.3430 0.9390 0.0262
vn -0.2889 0.9570 0.0267
vn -0.2386 0.9707 0.0271
vn -0.1922 0.9810 0.0274
vn -0.1496 0.9884 0.0276
vn -0.1105 0.9935 0.0278
vn -0.0747 0.9968 0.0278
vn -0.0419 0.9987 0.0279
vn -0.0116 0.9995 0.0279
vn 0.0165 0.9995 0.0279
vn 0.0427 0.9987 0.0279
vn 0.0675 0.9973 0.0279
vn 0.0911 0.9955 0.0278
vn 0.1140 0.9931 0.0277
vn 0.1363 0.9903 0.0277
s off
f 1//1 2//1 4//1 3//1
f 3//2 4//2 6//2 5//2
f 5//3 6//3 8//3 7//3
f 7//4 8//4 10//4 9//4
f 9//5 10//5 12//5 11//5
f 11//6 12//6 14//6 13//6
f 13//7 14//7 16//7 15//7
f 15//8 16//8 18//8 17//8
f 17//9 18//9 20//9 19//9
f 19//10 20//10 22//10 21//10
f 21//11 22//11 24//11 23//11
f 23//12 24//12 26//12 25//12
f 25//13 26//13 28//13 27//13
f 27//14 28//14 30//14 29//14
f 29//15 30//15 32//15 31//15
f 31//16 32//16 34//16 33//16
f 33//17 34//17 36//17 35//17
f 35//18 36//18 38//18 37//18
f 37//19 38//19 40//19 39//19
f 39//20 40//20 42//20 41//20
f 41//21 42//21 44//21 43//21
f 43//22 44//22 46//22 45//22
f 45//23 46//23 48//23 47//23
f 47//24 48//24 50//24 49//24
f 49//25 50//25 52//25 51//25
f 51//26 52//26 54//26 53//26
f 53//27 54//27 56//27 55//27
f 55//28 56//28 58//28 57//28
f 57//29 58//29 60//29 59//29
f 59//30 60//30 62//30 61//30
f 61//31 62//31 64//31 63//31
f 63//32 64//32 66//32 65//32
f 65//33 66//33 68//33 67//33
f 67//34 68//34 70//34 69//34
f 69//35 70//35 72//35 71//35
f 71//36 72//36 74//36 73//36
f 73//37 74//37 76//37 75//37
f 75//38 76//38 78//38 77//38
f 77//39 78//39 80//39 79//39
f 79//40 80//40 82//40 81//40
f 81//41 82//41 84//41 83//41
f 83//42 84//42 86//42 85//42
f 85//43 86//43 88//43 87//43
f 87//44 88//44 90//44 89//44
f 89//45 90//45 92//45 91//45
f 91//46 92//46 94//46 93//46
f 93//47 94//47 96//47 95//47
f 95//48 96//48 98//48 97//48
f 97//49 98//49 100//49 99//49
f 99//50 100//50 102//50 101//50
f 101//51 102//51 104//51 103//51
f 103//52 104//52 106//52 105//52
f 109//53 110//53 112//53 111//53
f 111//54 112//54 114//54 113//54
f 113//55 114//55 116//55 115//55
f 115//56 116//56 118//56 117//56
f 117//57 118//57 120//57 119//57
f 119//58 120//58 122//58 121//58
f 121//59 122//59 124//59 123//59
f 123//60 124//60 126//60 125//60
f 125//61 126//61 128//61 127//61
f 127//62 128//62 130//62 129//62
f 129//63 130//63 132//63 131//63
f 131//64 132//64 134//64 133//64
f 133//65 134//65 136//65 135//65
f 135//66 136//66 138//66 137//66
f 137//67 138//67 140//67 139//67
f 139//68 140//68 142//68 141//68
f 141//69 142//69 144//69 143//69
f 143//70 144//70 146//70 145//70
f 145//71 146//71 148//71 147//71
f 147//72 148//72 150//72 149//72
f 149//73 150//73 152//73 151//73
f 151//74 152//74 154//74 153//74
f 153//75 154//75 156//75 155//75
f 155//76 156//76 158//76 157//76
f 157//77 158//77 160//77 159//77
f 159//78 160//78 2//78 1//78
l 108 107
