# Blender v2.80 (sub 51) OBJ File: 'cbox_caustic.blend'
# www.blender.org
o cbox_floor.003
v 32.533524 126.271591 92.967522
v 32.533524 126.271591 343.032166
v 109.892265 51.728088 343.032196
v 109.892265 51.728043 94.415146
v 28.370228 121.951065 92.967522
v 28.370228 121.951065 343.032166
v 105.728966 47.407562 343.032196
v 105.728966 47.407516 94.415146
vn 0.6939 0.7201 0.0000
vn -0.6939 -0.7201 0.0000
vn 0.7201 -0.6939 0.0000
vn -0.7201 0.6939 0.0000
vn -0.0000 0.0000 1.0000
vn 0.0097 -0.0093 -0.9999
s off
f 2//1 4//1 1//1
f 8//2 6//2 5//2
f 3//3 8//3 4//3
f 1//4 6//4 2//4
f 3//5 6//5 7//5
f 4//6 5//6 1//6
f 2//1 3//1 4//1
f 8//2 7//2 6//2
f 3//3 7//3 8//3
f 1//4 5//4 6//4
f 3//5 2//5 6//5
f 4//6 8//6 5//6
