# Blender v2.82 (sub 7) OBJ File: ''
# www.blender.org
o Plane
v -9.439088 0.680244 9.439088
v 9.439088 0.680244 9.439088
v -9.439088 0.680244 -9.439088
v 9.439088 0.680244 -9.439088
v -3.758804 0.680244 -5.186034
v -3.756041 0.680244 -5.186479
v -3.758862 0.680244 -5.186024
v 4.385576 0.680244 -5.186024
v 4.385628 0.680244 -5.185997
v 4.388119 0.680244 -5.184708
v 4.382812 0.680244 -5.186469
v 4.382754 0.680244 -5.186479
v -3.589902 0.680244 -5.186479
v -3.761353 0.680244 -5.184735
v -3.761405 0.680244 -5.184708
v 4.390140 0.680244 -5.182652
v 4.390166 0.680244 -5.182600
v 4.388160 0.680244 -5.184666
v -3.763426 0.680244 -5.182652
v -3.763385 0.680244 -5.182694
v -3.764722 0.680244 -5.180068
v -3.764695 0.680244 -5.180121
v 4.391437 0.680244 -5.180068
v -3.765160 0.680244 -5.177260
v -3.765169 0.680244 -5.177201
v 4.391446 0.680244 -5.180010
v 4.391882 0.680244 -5.177201
v -3.765169 0.680244 6.061345
v -3.765169 0.680244 6.295529
v 4.391882 0.680244 -4.943007
v 4.391882 0.680244 6.295529
v 4.391873 0.680244 6.295588
v 4.391437 0.680244 6.298397
v -3.764731 0.680244 6.298338
v -3.764722 0.680244 6.298397
v 4.391410 0.680244 6.298450
v 4.390140 0.680244 6.300981
v -3.763452 0.680244 6.300928
v -3.763426 0.680244 6.300981
v 4.388119 0.680244 6.303036
v 4.388067 0.680244 6.303063
v 4.390098 0.680244 6.301023
v 4.385576 0.680244 6.304352
v 4.385519 0.680244 6.304361
v 4.382754 0.680244 6.304807
v 4.216622 0.680244 6.304807
v -3.756041 0.680244 6.304807
v -3.758862 0.680244 6.304352
v -3.756098 0.680244 6.304798
v -3.758914 0.680244 6.304326
v -3.761405 0.680244 6.303036
v -3.761447 0.680244 6.302994
vt 1.000000 0.000000
vt 0.732309 0.166051
vt 0.732160 0.166027
vt 0.300889 0.774710
vt 0.300892 0.774711
vt 0.000000 1.000000
vt 1.000000 1.000000
vt 0.732643 0.761837
vt 0.732643 0.774243
vt 0.732643 0.166518
vt 0.300578 0.166369
vt 0.300554 0.166518
vt 0.000000 0.000000
vt 0.300647 0.166229
vt 0.300645 0.166232
vt 0.300578 0.166366
vt 0.732643 0.166515
vt 0.300752 0.166123
vt 0.732620 0.166366
vt 0.732618 0.166363
vt 0.300754 0.166120
vt 0.300888 0.166051
vt 0.300886 0.166052
vt 0.732551 0.166229
vt 0.732549 0.166227
vt 0.732444 0.166120
vt 0.301035 0.166027
vt 0.732441 0.166119
vt 0.732306 0.166050
vt 0.301038 0.166027
vt 0.723360 0.166027
vt 0.300554 0.178923
vt 0.300554 0.774243
vt 0.732620 0.774391
vt 0.732620 0.774395
vt 0.732551 0.774531
vt 0.732552 0.774529
vt 0.300555 0.774246
vt 0.732446 0.774638
vt 0.300578 0.774395
vt 0.300579 0.774397
vt 0.732444 0.774640
vt 0.732309 0.774710
vt 0.732312 0.774709
vt 0.732160 0.774734
vt 0.732163 0.774734
vt 0.301038 0.774734
vt 0.309839 0.774734
vt 0.300647 0.774531
vt 0.300649 0.774534
vt 0.300754 0.774640
vt 0.300757 0.774642
vn 0.0000 1.0000 -0.0000
vn 0.0000 -1.0000 0.0000
vn 0.0000 1.0000 0.0013
vn 0.0000 1.0000 0.0012
vn 0.0000 1.0000 0.0003
vn 0.0000 1.0000 -0.0026
vn 0.0000 0.0000 1.0000
vn 0.0000 0.0000 -1.0000
vn 0.0000 1.0000 0.0005
vn 0.0000 0.9995 -0.0312
vn 0.0000 1.0000 0.0002
vn 0.0000 1.0000 0.0017
vn 0.0000 0.9701 0.2425
vn 0.0000 1.0000 -0.0008
s off
f 2/1/1 43/2/1 45/3/1
f 7/4/1 5/5/1 3/6/1
f 2/1/1 4/7/1 30/8/1
f 4/7/1 27/9/1 30/8/1
f 30/8/1 31/10/1 2/1/1
f 34/11/1 29/12/1 1/13/1
f 39/14/2 38/15/2 35/16/2
f 35/16/3 34/11/3 1/13/3
f 2/1/4 31/10/4 32/17/4
f 39/14/1 35/16/1 1/13/1
f 52/18/1 39/14/1 1/13/1
f 2/1/1 32/17/1 33/19/1
f 2/1/5 33/19/5 36/20/5
f 51/21/6 52/18/6 1/13/6
f 48/22/7 50/23/7 51/21/7
f 48/22/1 51/21/1 1/13/1
f 2/1/1 36/20/1 37/24/1
f 37/24/8 42/25/8 40/26/8
f 2/1/1 37/24/1 40/26/1
f 48/22/1 1/13/1 49/27/1
f 1/13/1 2/1/1 49/27/1
f 2/1/9 40/26/9 41/28/9
f 43/2/1 44/29/1 45/3/1
f 2/1/1 41/28/1 43/2/1
f 47/30/10 49/27/10 2/1/10
f 45/3/1 46/31/1 2/1/1
f 46/31/1 47/30/1 2/1/1
f 29/12/1 28/32/1 1/13/1
f 28/32/1 25/33/1 1/13/1
f 26/34/1 27/9/1 23/35/1
f 27/9/1 4/7/1 23/35/1
f 16/36/7 17/37/7 23/35/7
f 3/6/1 1/13/1 25/33/1
f 3/6/11 25/33/11 24/38/11
f 16/36/1 23/35/1 4/7/1
f 18/39/1 16/36/1 4/7/1
f 3/6/1 24/38/1 21/40/1
f 3/6/12 21/40/12 22/41/12
f 10/42/1 18/39/1 4/7/1
f 8/43/1 9/44/1 10/42/1
f 12/45/1 11/46/1 8/43/1
f 6/47/1 13/48/1 3/6/1
f 13/48/1 12/45/1 4/7/1
f 3/6/1 13/48/1 4/7/1
f 8/43/1 10/42/1 4/7/1
f 12/45/1 8/43/1 4/7/1
f 3/6/1 22/41/1 19/49/1
f 19/49/13 20/50/13 15/51/13
f 3/6/1 19/49/1 15/51/1
f 3/6/14 15/51/14 14/52/14
f 3/6/1 14/52/1 7/4/1
f 5/5/1 6/47/1 3/6/1
